<?xml version="1.0" encoding="UTF-8" standalone="no"?>
<svg version="1.1" xmlns="http://www.w3.org/2000/svg" viewBox="0 0 450 100">

<defs>
    <linearGradient id="gradFill" x1="0%" y1="0%" x2="100%" y2="0%">
      <stop offset="0%" style="stop-color:#f4e329;stop-opacity:1" />
      <stop offset="60%" style="stop-color:white;stop-opacity:1" />
    </linearGradient>

    <linearGradient id="gradStroke" x1="0%" y1="0%" x2="100%" y2="0%">
      <stop offset="45%" style="stop-color:#f4e329;stop-opacity:1" />
      <stop offset="75%" style="stop-color:gray;stop-opacity:1" />
    </linearGradient>

</defs>


<g id="Star" fill="#f4e329" stroke="#f4e329">
<path  d="
	M 50.000 70.000
	L 73.511 82.361
	L 69.021 56.180
	L 88.042 37.639
	L 61.756 33.820
	L 50.000 10.000
	L 38.244 33.820
	L 11.958 37.639
	L 30.979 56.180
	L 26.489 82.361
	L 50.000 70.000
"/>
</g>


<g id="Star" fill="#f4e329" stroke="#f4e329">
<path  d="
	M 135.000 70.000
	L 158.511 82.361
	L 154.021 56.180
	L 173.042 37.639
	L 146.756 33.820
	L 135.000 10.000
	L 123.244 33.820
	L 96.958 37.639
	L 115.979 56.180
	L 111.489 82.361
	L 135.000 70.000
"/>
</g>

<g id="Star" fill="#f4e329" stroke="#f4e329">
<path  d="
	M 220.000 70.000
	L 243.511 82.361
	L 239.021 56.180
	L 258.042 37.639
	L 231.756 33.820
	L 220.000 10.000
	L 208.244 33.820
	L 181.958 37.639
	L 200.979 56.180
	L 196.489 82.361
	L 220.000 70.000
"/>
</g>

<g id="Star" fill="#f4e329" stroke="#f4e329">
<path  d="
	M 305.000 70.000
	L 328.511 82.361
	L 324.021 56.180
	L 343.042 37.639
	L 316.756 33.820
	L 305.000 10.000
	L 293.244 33.820
	L 266.958 37.639
	L 285.979 56.180
	L 281.489 82.361
	L 305.000 70.000
"/>
</g>

<g id="Star" fill="url(#gradFill)" stroke="url(#gradStroke)">
<path  d="
	M 390.000 70.000
	L 413.511 82.361
	L 409.021 56.180
	L 428.042 37.639
	L 401.756 33.820
	L 390.000 10.000
	L 378.244 33.820
	L 351.958 37.639
	L 370.979 56.180
	L 366.489 82.361
	L 390.000 70.000
"/>
</g>

</svg>

